<?xml version="1.0" encoding="UTF-8" standalone="no"?>
<!-- Created with Inkscape (http://www.inkscape.org/) -->

<svg
   width="512"
   height="512"
   viewBox="0 0 512 512"
   version="1.1"
   id="svg1"
   sodipodi:docname="HMB.svg"
   inkscape:version="1.4 (e7c3feb100, 2024-10-09)"
   xmlns:inkscape="http://www.inkscape.org/namespaces/inkscape"
   xmlns:sodipodi="http://sodipodi.sourceforge.net/DTD/sodipodi-0.dtd"
   xmlns="http://www.w3.org/2000/svg"
   xmlns:svg="http://www.w3.org/2000/svg">
  <sodipodi:namedview
     id="namedview1"
     pagecolor="#505050"
     bordercolor="#ffffff"
     borderopacity="1"
     inkscape:showpageshadow="false"
     inkscape:pageopacity="0"
     inkscape:pagecheckerboard="true"
     inkscape:deskcolor="#505050"
     inkscape:document-units="px"
     showborder="true"
     labelstyle="default"
     showguides="false"
     inkscape:zoom="1.0951869"
     inkscape:cx="126.91898"
     inkscape:cy="317.29745"
     inkscape:window-width="1920"
     inkscape:window-height="1011"
     inkscape:window-x="1920"
     inkscape:window-y="32"
     inkscape:window-maximized="1"
     inkscape:current-layer="g7">
    <sodipodi:guide
       position="0.8622601,511.12523"
       orientation="0,-1"
       id="guide1"
       inkscape:locked="false" />
    <sodipodi:guide
       position="0.19817715,-0.18639897"
       orientation="1,0"
       id="guide2"
       inkscape:locked="false" />
    <sodipodi:guide
       position="512.05231,-0.010736884"
       orientation="0,-1"
       id="guide3"
       inkscape:locked="false" />
    <sodipodi:guide
       position="511.32826,512"
       orientation="1,0"
       id="guide4"
       inkscape:locked="false" />
  </sodipodi:namedview>
  <defs
     id="defs1">
    <rect
       x="29.218758"
       y="53.872085"
       width="389.8878"
       height="180.79106"
       id="rect5" />
    <rect
       x="0.91308618"
       y="0"
       width="510.41518"
       height="511.32826"
       id="rect4" />
  </defs>
  <g
     inkscape:label="Layer 1"
     inkscape:groupmode="layer"
     id="layer1"
     style="stroke:none;stroke-opacity:1">
    <rect
       style="display:none;fill:#ffffff;fill-opacity:1;stroke:none;stroke-width:14.8499;stroke-linecap:round;stroke-linejoin:round;stroke-dasharray:none;stroke-dashoffset:0;stroke-opacity:1;paint-order:stroke markers fill"
       id="rect6"
       width="512"
       height="512"
       x="0"
       y="0"
       inkscape:label="Bg" />
    <g
       id="g7"
       inkscape:label="Text"
       style="stroke:none;stroke-opacity:1">
      <path
         style="font-weight:900;font-stretch:extra-condensed;font-size:442.744px;font-family:'Noto Serif Thai';-inkscape-font-specification:'Noto Serif Thai, Heavy Extra-Condensed';fill:#12718b;fill-opacity:1;stroke:#000000;stroke-width:5.86528;stroke-linecap:round;stroke-linejoin:round;stroke-opacity:1;paint-order:normal"
         d="m 424.74353,2.9326371 q 40.81274,0 60.37586,30.4815019 19.90044,30.481503 19.90044,95.697721 0,41.82348 -8.76969,72.30497 -8.43239,29.77265 -22.59879,38.98797 v 3.54437 q 18.88855,12.05082 26.98362,41.82346 8.4324,29.06375 8.4324,75.14044 0,68.76062 -20.9123,108.45745 -20.57504,39.69684 -56.66563,39.69684 H 354.92341 V 2.9326371 Z m 0,197.0664529 q 22.26149,0 22.26149,-52.45654 0,-46.78556 -23.27338,-46.78556 h -11.46803 v 99.2421 z m -12.47992,94.28001 v 114.83728 h 14.84099 q 23.27336,0 23.27336,-58.1275 0,-26.93717 -6.0713,-41.82346 -6.07132,-14.88632 -17.87664,-14.88632 z"
         id="path20" />
      <path
         style="font-weight:900;font-stretch:extra-condensed;font-size:442.744px;font-family:'Noto Serif Thai';-inkscape-font-specification:'Noto Serif Thai, Heavy Extra-Condensed';fill:#528762;fill-opacity:1;stroke:#000000;stroke-width:5.4028;stroke-linecap:round;stroke-linejoin:round;stroke-opacity:1;paint-order:normal"
         d="M 240.32976,509.2986 205.15901,168.72905 h -1.14376 q 1.14376,34.76649 1.71566,65.27583 0.57187,29.79983 0.57187,55.34256 V 509.2986 h -45.4646 V 2.7013999 h 66.62424 L 259.20186,307.08544 h 0.85782 L 291.79913,2.7013999 h 66.05235 V 509.2986 H 311.24311 V 287.21889 q 0,-28.3808 0.57188,-56.76159 0.57189,-29.09034 1.42971,-61.72825 h -1.14377 l -35.7426,340.56955 z"
         id="path19" />
      <path
         style="font-weight:900;font-stretch:extra-condensed;font-size:442.744px;font-family:'Noto Serif Thai';-inkscape-font-specification:'Noto Serif Thai, Heavy Extra-Condensed';fill:#99430e;fill-opacity:1;stroke:#000000;stroke-width:5.80241;stroke-linecap:round;stroke-linejoin:round;stroke-opacity:1;paint-order:normal"
         d="M 164.96179,509.0988 H 108.8512 V 297.82866 H 59.011795 V 509.0988 H 2.9012045 V 2.9012086 H 59.011795 V 194.32047 H 108.8512 V 2.9012086 h 56.11059 z"
         id="text19" />
    </g>
  </g>
</svg>
