<?xml version="1.0" encoding="UTF-8"?>
<svg id="Colored_Logo" data-name="Colored Logo" xmlns="http://www.w3.org/2000/svg" xmlns:xlink="http://www.w3.org/1999/xlink" viewBox="0 0 512 512">
  <defs>
    <style>
      .cls-1 {
        fill: url(#linear-gradient);
      }

      .cls-1, .cls-2 {
        stroke-width: 0px;
      }

      .cls-2 {
        fill: #231f20;
      }
    </style>
    <linearGradient id="linear-gradient" x1="31.03" y1="292.97" x2="487.94" y2="225.39" gradientUnits="userSpaceOnUse">
      <stop offset=".08" stop-color="#cde8d4"/>
      <stop offset=".49" stop-color="#fbd786"/>
      <stop offset=".98" stop-color="#f3787d"/>
    </linearGradient>
  </defs>
  <rect class="cls-1" x="21" y="183.26" width="466.43" height="153.39"/>
  <path class="cls-2" d="M462,0H50C22.39,0,0,22.39,0,50v412c0,27.61,22.39,50,50,50h412c27.61,0,50-22.39,50-50V50c0-27.61-22.39-50-50-50ZM482.17,322.83c0,3.42-2.76,6.19-6.19,6.19h-183.54c-2.91,0-5.51-2.13-5.78-5.03-.32-3.32,2.29-6.12,5.55-6.12h172.63c3.43,0,6.19-2.77,6.19-6.19v-111.38c0-3.42-2.76-6.19-6.19-6.19h-165.52c-2.29,0-4.41,1.28-5.47,3.32l-67.45,128.6c-.95,1.83-2.86,2.98-4.93,2.98H36.02c-3.43,0-6.19-2.77-6.19-6.19v-133.67c0-3.42,2.76-6.19,6.19-6.19h185.18c2.92,0,5.51,2.13,5.79,5.03.31,3.32-2.29,6.12-5.55,6.12H47.17c-3.43,0-6.19,2.77-6.19,6.19v111.38c0,3.42,2.76,6.19,6.19,6.19h167.17c2.3,0,4.42-1.28,5.48-3.32l67.44-128.6c.97-1.83,2.87-2.98,4.94-2.98h183.77c3.43,0,6.19,2.77,6.19,6.19v133.67ZM288.74,256.63c0-25.67,16.8-40.73,38.03-40.73s36.93,16.01,36.93,39.47c0,28.37-19.65,40.73-38.2,40.73-20.76,0-36.77-15.22-36.77-39.47ZM414.89,227.47c-9.19,0-16.32,6.5-18.7,14.26-.64,1.75-.95,4.12-.95,6.5v39.94c0,3.41-2.77,6.18-6.18,6.18h-1.59c-3.41,0-6.18-2.77-6.18-6.18v-49.77c0-5.29-.07-9.94-.25-14.33-.15-3.51,2.66-6.43,6.18-6.43h0c3.27,0,5.97,2.54,6.17,5.8l.43,6.88h.31c3.8-7.29,12.68-14.42,25.36-14.42,10.62,0,27.1,6.34,27.1,32.65v39.63c0,3.41-2.77,6.18-6.18,6.18h-1.57c-3.41,0-6.18-2.77-6.18-6.18v-38.04c0-12.36-4.59-22.66-17.75-22.66ZM222.34,255.37c0,28.37-19.65,40.73-38.2,40.73-20.75,0-36.76-15.22-36.76-39.47,0-25.67,16.8-40.73,38.03-40.73s36.92,16.01,36.92,39.47ZM98.57,227.47c-9.2,0-16.33,6.5-18.71,14.26-.63,1.75-.95,4.12-.95,6.5v39.94c0,3.41-2.77,6.18-6.18,6.18h-1.57c-3.41,0-6.18-2.77-6.18-6.18v-49.77c0-5.28-.07-9.92-.26-14.31-.15-3.52,2.65-6.45,6.17-6.45h0c3.27,0,5.97,2.54,6.17,5.8l.43,6.88h.32c3.8-7.29,12.68-14.42,25.36-14.42,10.61,0,27.1,6.34,27.1,32.65v39.63c0,3.41-2.77,6.18-6.18,6.18h-1.59c-3.41,0-6.18-2.77-6.18-6.18v-38.04c0-12.36-4.59-22.66-17.74-22.66Z"/>
  <path class="cls-2" d="M212.54,255.53c0,20.95-14.51,30.08-28.21,30.08-15.33,0-27.15-11.24-27.15-29.15,0-18.95,12.41-30.08,28.09-30.08s27.27,11.82,27.27,29.15Z"/>
  <path class="cls-2" d="M298.54,256.47c0-18.95,12.41-30.08,28.09-30.08s27.27,11.82,27.27,29.15c0,20.95-14.51,30.08-28.2,30.08-15.33,0-27.15-11.24-27.15-29.15Z"/>
</svg>