<?xml version="1.0" encoding="UTF-8" standalone="no"?>
<!-- Created with Inkscape (http://www.inkscape.org/) -->

<svg
   width="512"
   height="512"
   viewBox="0 0 512 512"
   version="1.1"
   id="svg1"
   sodipodi:docname="HMBmonochrome.svg"
   inkscape:version="1.4 (e7c3feb100, 2024-10-09)"
   xml:space="preserve"
   xmlns:inkscape="http://www.inkscape.org/namespaces/inkscape"
   xmlns:sodipodi="http://sodipodi.sourceforge.net/DTD/sodipodi-0.dtd"
   xmlns="http://www.w3.org/2000/svg"
   xmlns:svg="http://www.w3.org/2000/svg"><sodipodi:namedview
     id="namedview1"
     pagecolor="#505050"
     bordercolor="#ffffff"
     borderopacity="1"
     inkscape:showpageshadow="false"
     inkscape:pageopacity="0"
     inkscape:pagecheckerboard="true"
     inkscape:deskcolor="#505050"
     inkscape:document-units="px"
     showborder="true"
     labelstyle="default"
     showguides="false"
     inkscape:zoom="0.27379672"
     inkscape:cx="-1000.7425"
     inkscape:cy="421.84582"
     inkscape:window-width="1920"
     inkscape:window-height="1011"
     inkscape:window-x="1920"
     inkscape:window-y="32"
     inkscape:window-maximized="1"
     inkscape:current-layer="g7"><sodipodi:guide
       position="0.8622601,511.12523"
       orientation="0,-1"
       id="guide1"
       inkscape:locked="false" /><sodipodi:guide
       position="0.19817715,-0.18639897"
       orientation="1,0"
       id="guide2"
       inkscape:locked="false" /><sodipodi:guide
       position="512.05231,-0.010736884"
       orientation="0,-1"
       id="guide3"
       inkscape:locked="false" /><sodipodi:guide
       position="511.32826,512"
       orientation="1,0"
       id="guide4"
       inkscape:locked="false" /></sodipodi:namedview><defs
     id="defs1"><rect
       x="29.218758"
       y="53.872085"
       width="389.8878"
       height="180.79106"
       id="rect5" /><rect
       x="0.91308618"
       y="0"
       width="510.41518"
       height="511.32826"
       id="rect4" /></defs><g
     inkscape:label="Layer 1"
     inkscape:groupmode="layer"
     id="layer1"
     style="stroke:none;stroke-opacity:1"><rect
       style="display:none;fill:#ffffff;fill-opacity:1;stroke:none;stroke-width:14.8499;stroke-linecap:round;stroke-linejoin:round;stroke-dasharray:none;stroke-dashoffset:0;stroke-opacity:1;paint-order:stroke markers fill"
       id="rect6"
       width="512"
       height="512"
       x="0"
       y="0"
       inkscape:label="Bg" /><g
       id="g7"
       inkscape:label="Text"
       style="stroke:none;stroke-opacity:1"><path
         style="font-weight:900;font-stretch:extra-condensed;font-size:442.744px;font-family:'Noto Serif Thai';-inkscape-font-specification:'Noto Serif Thai, Heavy Extra-Condensed';fill:#ffffff;fill-opacity:1;stroke:#000000;stroke-width:5.60526;stroke-linecap:round;stroke-linejoin:round;stroke-opacity:1;paint-order:normal"
         d="m 432.2238,2.8026282 q 37.25521,0 55.11307,30.4971608 18.16578,30.497163 18.16578,95.746881 0,41.84497 -8.00526,72.34212 -7.69736,29.78794 -20.62892,39.008 v 3.54619 q 17.24209,12.05701 24.63154,41.84495 7.69737,29.07868 7.69737,75.17904 0,68.79594 -19.08944,108.51317 -18.78157,39.71723 -51.72625,39.71723 h -69.892 V 2.8026282 Z m 0,197.1676918 q 20.32102,0 20.32102,-52.48349 0,-46.80959 -21.24471,-46.80959 h -10.46839 v 99.29308 z m -11.39208,94.32845 v 114.89627 h 13.54734 q 21.24469,0 21.24469,-58.15736 0,-26.95101 -5.54208,-41.84495 -5.5421,-14.89396 -16.31839,-14.89396 z"
         id="path20" /><path
         style="font-weight:900;font-stretch:extra-condensed;font-size:442.744px;font-family:'Noto Serif Thai';-inkscape-font-specification:'Noto Serif Thai, Heavy Extra-Condensed';fill:#ffffff;fill-opacity:1;stroke:#000000;stroke-width:5.66663;stroke-linecap:round;stroke-linejoin:round;stroke-opacity:1;paint-order:normal"
         d="M 238.41641,509.16668 199.70667,168.7745 h -1.25884 q 1.25884,34.74839 1.88829,65.24184 0.62942,29.7843 0.62942,55.31373 V 509.16668 H 150.92615 V 2.8333162 h 73.32817 L 259.18747,307.05884 h 0.94415 L 295.06478,2.8333162 h 72.69873 V 509.16668 H 316.46527 V 287.20263 q 0,-28.36602 0.62943,-56.73203 0.62943,-29.07518 1.57357,-61.6961 h -1.25887 l -39.33913,340.39218 z"
         id="path19" /><path
         style="font-weight:900;font-stretch:extra-condensed;font-size:442.744px;font-family:'Noto Serif Thai';-inkscape-font-specification:'Noto Serif Thai, Heavy Extra-Condensed';fill:#ffffff;fill-opacity:1;stroke:#000000;stroke-width:5.52428;stroke-linecap:round;stroke-linejoin:round;stroke-opacity:1;paint-order:normal"
         d="M 149.57839,509.23786 H 98.745879 V 297.85164 H 53.594651 V 509.23786 H 2.7621418 V 2.7621459 H 53.594651 V 194.28658 H 98.745879 V 2.7621459 h 50.832511 z"
         id="text19" /></g></g></svg>
