<?xml version="1.0" encoding="UTF-8"?>
<svg id="Normal_Logo" data-name="Normal Logo" xmlns="http://www.w3.org/2000/svg" viewBox="0 128 512 256">
  <defs>
    <style>
      .cls-1 {
        fill: #f588c3;
        stroke-width: 0px;
      }
    </style>
  </defs>
  <path class="cls-1" d="M78.63,239.67c0-7.36-.15-13.39-.59-19.28h11.48l.74,11.77h.29c3.53-6.77,11.77-13.39,23.54-13.39,9.86,0,25.16,5.89,25.16,30.31v42.53h-12.95v-41.06c0-11.48-4.27-21.04-16.48-21.04-8.54,0-15.16,6.03-17.36,13.24-.59,1.62-.88,3.83-.88,6.03v42.82h-12.95v-51.95Z"/>
  <path class="cls-1" d="M224.75,255.41c0,26.34-18.25,37.82-35.46,37.82-19.28,0-34.14-14.13-34.14-36.64,0-23.84,15.6-37.82,35.32-37.82s34.29,14.86,34.29,36.64ZM168.24,256.15c0,15.6,8.98,27.37,21.63,27.37s21.63-11.63,21.63-27.67c0-12.07-6.03-27.37-21.34-27.37s-21.93,14.13-21.93,27.66Z"/>
  <path class="cls-1" d="M356,255.41c0,26.34-18.25,37.82-35.46,37.82-19.28,0-34.14-14.13-34.14-36.64,0-23.84,15.6-37.82,35.32-37.82s34.29,14.86,34.29,36.64ZM299.49,256.15c0,15.6,8.98,27.37,21.63,27.37s21.63-11.63,21.63-27.67c0-12.07-6.03-27.37-21.34-27.37s-21.93,14.13-21.93,27.66Z"/>
  <path class="cls-1" d="M372.33,239.67c0-7.36-.15-13.39-.59-19.28h11.48l.74,11.77h.29c3.53-6.77,11.77-13.39,23.55-13.39,9.86,0,25.16,5.89,25.16,30.31v42.53h-12.95v-41.06c0-11.48-4.27-21.04-16.48-21.04-8.53,0-15.16,6.03-17.36,13.24-.59,1.62-.88,3.83-.88,6.03v42.82h-12.95v-51.95Z"/>
  <path class="cls-1" d="M460.25,323.8h-170.42c-2.7,0-5.11-1.98-5.37-4.67-.29-3.09,2.12-5.68,5.15-5.68h160.29c3.17,0,5.75-2.57,5.75-5.75v-103.42c0-3.17-2.57-5.75-5.75-5.75h-153.69c-2.14,0-4.1,1.19-5.09,3.08l-62.62,119.41c-.89,1.7-2.66,2.77-4.58,2.77H51.75c-3.17,0-5.75-2.57-5.75-5.75v-124.11c0-3.17,2.57-5.75,5.75-5.75h171.95c2.7,0,5.11,1.98,5.37,4.67.29,3.09-2.12,5.68-5.15,5.68H62.09c-3.17,0-5.75,2.57-5.75,5.75v103.42c0,3.17,2.57,5.75,5.75,5.75h155.23c2.14,0,4.1-1.19,5.09-3.08l62.62-119.41c.89-1.7,2.66-2.77,4.58-2.77h170.64c3.17,0,5.75,2.57,5.75,5.75v124.11c0,3.17-2.57,5.75-5.75,5.75Z"/>
</svg>