<?xml version="1.0" encoding="utf-8"?>
<!-- Generator: Adobe Illustrator 26.2.1, SVG Export Plug-In . SVG Version: 6.00 Build 0)  -->
<svg version="1.1" id="Layer_1" xmlns="http://www.w3.org/2000/svg" xmlns:xlink="http://www.w3.org/1999/xlink" x="0px" y="0px"
	 viewBox="0 0 1024 1024" style="enable-background:new 0 0 1024 1024;" xml:space="preserve">
<path d="M81.03,469.6c0-20-0.8-36.4-1.6-52h31.2l1.6,31.6h1.2c9.6-18,32-36,64-36c26.4,0,68,16,68,82v115.6h-34.8V499.6
	c0-31.6-11.6-57.6-44.8-57.6c-23.2,0-40.8,16.4-47.2,36c-1.6,4.4-2.8,10.4-2.8,16.4v116.4h-34.8V469.6z"/>
<path d="M462.22,511.8c0,71.6-52.4,101.2-97.2,101.2c-50.8,0-92-38-92-100.4c0-64.8,44-101.6,96.4-101.6
	C423.42,411,462.22,449.8,462.22,511.8z M308.63,512.6c0,38.8,19.6,74,58.8,74c38.4,0,59.2-35.2,59.2-74.4
	c0-33.6-15.6-75.2-59.2-75.2C324.23,437,308.63,478.2,308.63,512.6z"/>
<path d="M759.02,511.8c0,71.6-52.4,101.2-97.2,101.2c-50.8,0-92-38-92-100.4c0-64.8,44-101.6,96.4-101.6
	C720.22,411,759.02,449.8,759.02,511.8z M605.42,512.6c0,38.8,19.6,74,58.8,74c38.4,0,59.2-35.2,59.2-74.4
	c0-33.6-15.6-75.2-59.2-75.2C621.02,437,605.42,478.2,605.42,512.6z"/>
<path d="M791.42,469.6c0-20-0.8-36.4-1.6-52h31.2l1.6,31.6h1.2c9.6-18,32-36,64-36c26.4,0,68,16,68,82v115.6h-34.8V499.6
	c0-31.6-11.6-57.6-44.8-57.6c-23.2,0-40.8,16.4-47.2,36c-1.6,4.4-2.8,10.4-2.8,16.4v116.4h-34.8V469.6z"/>
<polygon points="996.48,366.98 996.48,393.98 572.4,393.98 470.84,656.95 470.84,657.01 31.26,657.01 31.26,630.01 454.41,630.01 
	555.62,367 555.74,367 555.74,366.98 "/>
</svg>
