<?xml version="1.0" encoding="utf-8"?>
<!-- Generator: Adobe Illustrator 26.2.1, SVG Export Plug-In . SVG Version: 6.00 Build 0)  -->
<svg version="1.1" id="Layer_1" xmlns="http://www.w3.org/2000/svg" xmlns:xlink="http://www.w3.org/1999/xlink" x="0px" y="0px"
	 viewBox="0 0 1024 1024" style="enable-background:new 0 0 1024 1024;" xml:space="preserve">
<path d="M873.09,0H150.91C67.91,0,0,67.91,0,150.91v722.18c0,83,67.91,150.91,150.91,150.91h722.18c83,0,150.91-67.91,150.91-150.91
	V150.91C1024,67.91,956.09,0,873.09,0z M369.42,411c54,0,92.8,38.8,92.8,100.8c0,71.6-52.4,101.2-97.2,101.2
	c-50.79,0-91.99-38-91.99-100.4C273.03,447.8,317.03,411,369.42,411z M108.69,417.6c1.09,0,1.98,0.85,2.04,1.94l1.5,29.66h0
	c0.74,0,1.41-0.4,1.77-1.05c9.9-17.64,32.05-34.95,63.43-34.95c26.4,0,68,16,68,82v113.56c0,1.13-0.91,2.04-2.04,2.04h-30.72
	c-1.13,0-2.04-0.91-2.04-2.04V499.6c0-31.6-11.6-57.6-44.8-57.6c-23.2,0-40.8,16.4-47.2,36c-1.6,4.4-2.8,10.4-2.8,16.4v114.36
	c0,1.13-0.91,2.04-2.04,2.04H83.07c-1.13,0-2.04-0.91-2.04-2.04V469.6c0-19.09-0.73-34.9-1.49-49.86c-0.06-1.17,0.87-2.14,2.04-2.14
	H108.69z M661.82,613c-50.8,0-92-38-92-100.4c0-64.8,44-101.6,96.4-101.6c54,0,92.8,38.8,92.8,100.8
	C759.02,583.4,706.62,613,661.82,613z M953.77,610.8h-30.71c-1.13,0-2.04-0.91-2.04-2.04V499.6c0-31.6-11.6-57.6-44.8-57.6
	c-23.2,0-40.8,16.4-47.2,36c-1.6,4.4-2.8,10.4-2.8,16.4v114.36c0,1.13-0.91,2.04-2.04,2.04h-30.72c-1.13,0-2.04-0.91-2.04-2.04
	V469.6c0-19.09-0.73-34.9-1.49-49.86c-0.06-1.17,0.87-2.14,2.04-2.14h27.11c1.09,0,1.98,0.85,2.04,1.94l1.5,29.66l0,0
	c0.74,0,1.41-0.4,1.77-1.05c9.9-17.64,32.05-34.95,63.43-34.95c26.4,0,67.99,16,67.99,82v113.56
	C955.81,609.89,954.9,610.8,953.77,610.8z M994.44,393.98H573.8c-0.84,0-1.6,0.52-1.9,1.3L470.84,656.95v0.06H33.3
	c-1.13,0-2.04-0.91-2.04-2.04v-22.92c0-1.13,0.91-2.04,2.04-2.04h419.71c0.84,0,1.6-0.52,1.9-1.31L555.62,367h0.12v-0.02h438.7
	c1.13,0,2.04,0.91,2.04,2.04v22.92C996.48,393.07,995.57,393.98,994.44,393.98z"/>
<path d="M426.62,512.2c0,39.2-20.8,74.4-59.2,74.4c-39.19,0-58.79-35.2-58.79-74c0-34.4,15.6-75.6,58.79-75.6
	C411.02,437,426.62,478.6,426.62,512.2z"/>
<path d="M723.42,512.2c0,39.2-20.8,74.4-59.2,74.4c-39.2,0-58.8-35.2-58.8-74c0-34.4,15.6-75.6,58.8-75.6
	C707.82,437,723.42,478.6,723.42,512.2z"/>
</svg>
